<?xml version="1.0" standalone="no"?>
<!DOCTYPE svg PUBLIC "-//W3C//DTD SVG 20010904//EN"
 "http://www.w3.org/TR/2001/REC-SVG-20010904/DTD/svg10.dtd">
<svg version="1.0" xmlns="http://www.w3.org/2000/svg"
 width="246.000000pt" height="212.000000pt" viewBox="0 0 246.000000 212.000000"
 preserveAspectRatio="xMidYMid meet">

<g transform="translate(0.000000,212.000000) scale(0.100000,-0.100000)"
fill="#000000" stroke="none">
<path d="M1465 1699 c-11 -7 -56 -46 -100 -88 -83 -80 -160 -141 -257 -205
l-57 -38 -48 33 c-26 18 -78 54 -114 81 -89 65 -108 64 -179 -9 -103 -107
-227 -287 -309 -450 -138 -277 -211 -581 -211 -883 l0 -140 68 0 68 0 -4 59
c-11 154 35 462 98 651 66 200 222 479 342 613 l43 49 27 -22 c55 -43 202
-130 220 -130 39 0 238 136 375 258 l73 64 41 -33 c55 -44 190 -197 263 -298
151 -210 262 -467 311 -716 29 -145 49 -370 40 -442 l-6 -53 70 0 71 0 0 143
c-1 509 -201 996 -566 1376 -162 169 -214 205 -259 180z"/>
<path d="M1363 1145 c-173 -47 -291 -190 -301 -365 -13 -225 145 -407 370
-426 125 -11 251 39 334 134 74 85 114 223 95 327 -45 241 -271 391 -498 330z
m215 -151 c126 -63 182 -204 132 -337 -53 -142 -230 -210 -368 -141 -94 47
-145 131 -146 239 -1 59 3 78 28 122 34 63 56 83 120 117 69 36 161 36 234 0z"/>
<path d="M1419 925 c-61 -33 -54 -131 10 -153 65 -23 130 33 116 98 -12 55
-76 83 -126 55z"/>
</g>
</svg>
